<svg width="220" height="39" viewBox="0 0 220 39" fill="none" xmlns="http://www.w3.org/2000/svg">
    <rect x="0.5" y="0.5" width="219" height="38" fill="#F2F4F3" stroke="#333333"/>
    <path d="M12.136 28V10.96H19.192C19.928 10.96 20.6 11.112 21.208 11.416C21.832 11.72 22.368 12.136 22.816 12.664C23.264 13.176 23.616 13.752 23.872 14.392C24.128 15.016 24.256 15.656 24.256 16.312C24.256 17.24 24.048 18.12 23.632 18.952C23.232 19.768 22.664 20.432 21.928 20.944C21.192 21.456 20.328 21.712 19.336 21.712H13.816V28H12.136ZM13.816 20.224H19.264C19.936 20.224 20.52 20.04 21.016 19.672C21.512 19.304 21.896 18.824 22.168 18.232C22.44 17.64 22.576 17 22.576 16.312C22.576 15.608 22.416 14.96 22.096 14.368C21.776 13.776 21.352 13.312 20.824 12.976C20.312 12.624 19.744 12.448 19.12 12.448H13.816V20.224ZM27.0657 28V10.984H28.7457V20.872L38.1297 10.96H39.9777L33.0177 18.448L40.3377 28H38.4417L31.9377 19.456L28.7457 22.768V28H27.0657ZM55.9276 10.96V28H54.2716V20.032H44.1676V28H42.4876V10.96H44.1676V18.544H54.2716V10.96H55.9276ZM58.4149 15.496L58.8229 12.928H58.2469V10.48H59.8309V12.928L59.2309 15.496H58.4149ZM65.7321 28.24C64.7081 28.24 63.7561 28.072 62.8761 27.736C61.9961 27.4 61.2361 26.888 60.5961 26.2L61.2681 25.048C61.9721 25.704 62.6761 26.184 63.3801 26.488C64.1001 26.776 64.8601 26.92 65.6601 26.92C66.6361 26.92 67.4281 26.728 68.0361 26.344C68.6441 25.944 68.9481 25.376 68.9481 24.64C68.9481 24.144 68.7961 23.768 68.4921 23.512C68.2041 23.24 67.7801 23.024 67.2201 22.864C66.6761 22.688 66.0201 22.504 65.2521 22.312C64.3881 22.072 63.6601 21.824 63.0681 21.568C62.4921 21.296 62.0521 20.96 61.7481 20.56C61.4601 20.144 61.3161 19.608 61.3161 18.952C61.3161 18.136 61.5161 17.464 61.9161 16.936C62.3321 16.392 62.8921 15.984 63.5961 15.712C64.3161 15.424 65.1161 15.28 65.9961 15.28C66.9561 15.28 67.8041 15.432 68.5401 15.736C69.2761 16.04 69.8761 16.464 70.3401 17.008L69.5481 18.112C69.1001 17.6 68.5641 17.224 67.9401 16.984C67.3321 16.728 66.6521 16.6 65.9001 16.6C65.3881 16.6 64.9001 16.672 64.4361 16.816C63.9721 16.944 63.5881 17.168 63.2841 17.488C62.9961 17.792 62.8521 18.216 62.8521 18.76C62.8521 19.208 62.9641 19.56 63.1881 19.816C63.4121 20.056 63.7481 20.264 64.1961 20.44C64.6441 20.6 65.1961 20.776 65.8521 20.968C66.7961 21.224 67.6201 21.488 68.3241 21.76C69.0281 22.016 69.5721 22.352 69.9561 22.768C70.3401 23.184 70.5321 23.768 70.5321 24.52C70.5321 25.688 70.0921 26.6 69.2121 27.256C68.3321 27.912 67.1721 28.24 65.7321 28.24ZM79.6829 28V10.96H86.7389C87.4749 10.96 88.1469 11.112 88.7549 11.416C89.3789 11.72 89.9149 12.136 90.3629 12.664C90.8109 13.176 91.1629 13.752 91.4189 14.392C91.6749 15.016 91.8029 15.656 91.8029 16.312C91.8029 17.24 91.5949 18.12 91.1789 18.952C90.7789 19.768 90.2109 20.432 89.4749 20.944C88.7389 21.456 87.8749 21.712 86.8829 21.712H81.3629V28H79.6829ZM81.3629 20.224H86.8109C87.4829 20.224 88.0669 20.04 88.5629 19.672C89.0589 19.304 89.4429 18.824 89.7149 18.232C89.9869 17.64 90.1229 17 90.1229 16.312C90.1229 15.608 89.9629 14.96 89.6429 14.368C89.3229 13.776 88.8989 13.312 88.3709 12.976C87.8589 12.624 87.2909 12.448 86.6669 12.448H81.3629V20.224ZM101.477 28.12C100.277 28.12 99.1886 27.88 98.2126 27.4C97.2366 26.92 96.3966 26.272 95.6926 25.456C94.9886 24.624 94.4446 23.696 94.0606 22.672C93.6766 21.632 93.4846 20.568 93.4846 19.48C93.4846 18.344 93.6846 17.264 94.0846 16.24C94.4846 15.2 95.0446 14.28 95.7646 13.48C96.5006 12.664 97.3566 12.024 98.3326 11.56C99.3086 11.08 100.365 10.84 101.501 10.84C102.701 10.84 103.789 11.088 104.765 11.584C105.741 12.08 106.573 12.744 107.261 13.576C107.965 14.408 108.509 15.336 108.893 16.36C109.277 17.384 109.469 18.432 109.469 19.504C109.469 20.64 109.269 21.728 108.869 22.768C108.469 23.792 107.909 24.712 107.189 25.528C106.469 26.328 105.621 26.96 104.645 27.424C103.669 27.888 102.613 28.12 101.477 28.12ZM95.1646 19.48C95.1646 20.408 95.3166 21.304 95.6206 22.168C95.9246 23.016 96.3566 23.776 96.9166 24.448C97.4766 25.104 98.1406 25.632 98.9086 26.032C99.6926 26.416 100.549 26.608 101.477 26.608C102.453 26.608 103.325 26.408 104.093 26.008C104.877 25.592 105.541 25.048 106.085 24.376C106.645 23.688 107.069 22.92 107.357 22.072C107.645 21.224 107.789 20.36 107.789 19.48C107.789 18.552 107.637 17.664 107.333 16.816C107.029 15.968 106.589 15.208 106.013 14.536C105.453 13.864 104.789 13.336 104.021 12.952C103.253 12.568 102.405 12.376 101.477 12.376C100.517 12.376 99.6446 12.576 98.8606 12.976C98.0926 13.376 97.4286 13.92 96.8686 14.608C96.3246 15.28 95.9006 16.04 95.5966 16.888C95.3086 17.736 95.1646 18.6 95.1646 19.48ZM112.636 28V10.96H119.836C120.572 10.96 121.244 11.112 121.852 11.416C122.46 11.72 122.988 12.136 123.436 12.664C123.9 13.176 124.252 13.752 124.492 14.392C124.748 15.016 124.876 15.656 124.876 16.312C124.876 17.128 124.716 17.896 124.396 18.616C124.092 19.336 123.652 19.944 123.076 20.44C122.516 20.936 121.852 21.264 121.084 21.424L125.26 28H123.364L119.356 21.712H114.316V28H112.636ZM114.316 20.224H119.884C120.556 20.224 121.14 20.04 121.636 19.672C122.132 19.304 122.516 18.824 122.788 18.232C123.06 17.624 123.196 16.984 123.196 16.312C123.196 15.624 123.036 14.992 122.716 14.416C122.412 13.824 121.996 13.352 121.468 13C120.956 12.632 120.38 12.448 119.74 12.448H114.316V20.224ZM140.248 12.448H134.176V28H132.496V12.448H126.424V10.96H140.248V12.448ZM142.8 28V10.96H153.984V12.448H144.48V18.712H152.496V20.104H144.48V28H142.8ZM163.469 28.12C162.269 28.12 161.181 27.88 160.205 27.4C159.229 26.92 158.389 26.272 157.685 25.456C156.981 24.624 156.437 23.696 156.053 22.672C155.669 21.632 155.477 20.568 155.477 19.48C155.477 18.344 155.677 17.264 156.077 16.24C156.477 15.2 157.037 14.28 157.757 13.48C158.493 12.664 159.349 12.024 160.325 11.56C161.301 11.08 162.357 10.84 163.493 10.84C164.693 10.84 165.781 11.088 166.757 11.584C167.733 12.08 168.565 12.744 169.253 13.576C169.957 14.408 170.501 15.336 170.885 16.36C171.269 17.384 171.461 18.432 171.461 19.504C171.461 20.64 171.261 21.728 170.861 22.768C170.461 23.792 169.901 24.712 169.181 25.528C168.461 26.328 167.613 26.96 166.637 27.424C165.661 27.888 164.605 28.12 163.469 28.12ZM157.157 19.48C157.157 20.408 157.309 21.304 157.613 22.168C157.917 23.016 158.349 23.776 158.909 24.448C159.469 25.104 160.133 25.632 160.901 26.032C161.685 26.416 162.541 26.608 163.469 26.608C164.445 26.608 165.317 26.408 166.085 26.008C166.869 25.592 167.533 25.048 168.077 24.376C168.637 23.688 169.061 22.92 169.349 22.072C169.637 21.224 169.781 20.36 169.781 19.48C169.781 18.552 169.629 17.664 169.325 16.816C169.021 15.968 168.581 15.208 168.005 14.536C167.445 13.864 166.781 13.336 166.013 12.952C165.245 12.568 164.397 12.376 163.469 12.376C162.509 12.376 161.637 12.576 160.853 12.976C160.085 13.376 159.421 13.92 158.861 14.608C158.317 15.28 157.893 16.04 157.589 16.888C157.301 17.736 157.157 18.6 157.157 19.48ZM174.628 28V10.96H176.308V26.512H186.148V28H174.628ZM188.62 28V10.96H190.3V28H188.62ZM201.438 28.12C200.238 28.12 199.15 27.88 198.174 27.4C197.198 26.92 196.358 26.272 195.654 25.456C194.95 24.624 194.406 23.696 194.021 22.672C193.638 21.632 193.446 20.568 193.446 19.48C193.446 18.344 193.646 17.264 194.046 16.24C194.446 15.2 195.006 14.28 195.726 13.48C196.462 12.664 197.318 12.024 198.294 11.56C199.27 11.08 200.326 10.84 201.462 10.84C202.662 10.84 203.75 11.088 204.726 11.584C205.702 12.08 206.534 12.744 207.222 13.576C207.926 14.408 208.47 15.336 208.854 16.36C209.238 17.384 209.43 18.432 209.43 19.504C209.43 20.64 209.23 21.728 208.83 22.768C208.43 23.792 207.87 24.712 207.15 25.528C206.43 26.328 205.582 26.96 204.606 27.424C203.63 27.888 202.574 28.12 201.438 28.12ZM195.126 19.48C195.126 20.408 195.278 21.304 195.582 22.168C195.886 23.016 196.318 23.776 196.878 24.448C197.438 25.104 198.102 25.632 198.87 26.032C199.654 26.416 200.51 26.608 201.438 26.608C202.414 26.608 203.286 26.408 204.054 26.008C204.838 25.592 205.502 25.048 206.046 24.376C206.606 23.688 207.03 22.92 207.318 22.072C207.606 21.224 207.75 20.36 207.75 19.48C207.75 18.552 207.598 17.664 207.294 16.816C206.99 15.968 206.55 15.208 205.974 14.536C205.414 13.864 204.75 13.336 203.982 12.952C203.214 12.568 202.366 12.376 201.438 12.376C200.478 12.376 199.606 12.576 198.822 12.976C198.054 13.376 197.39 13.92 196.83 14.608C196.286 15.28 195.862 16.04 195.558 16.888C195.27 17.736 195.126 18.6 195.126 19.48Z" fill="#333333"/>
</svg>
